# xmcd
# Copyright (C) 1995-1998 Ti Kan
#
# Track frame offsets:
#       150
#       17004
#       35372
#       49525
#       63647
#       77380
#       96649
#       109594
#       129099
#       147964
#       166398
#
# Disc length: 2388 seconds
#
# Revision: 0
# Processed by: cddbd v1.5.2PL0 Copyright (c) Steve Scherf et al.
# Submitted via: CD-Transfer v1.0
#
DISCID=8709520b
DTITLE=Luk Von Bergen - 
DYEAR=11
DGENRE=
TTITLE0=Zirkus
TTITLE1=Land In Sicht
TTITLE2=Mir Tanzä Zäme Salsa
TTITLE3=Pirat
TTITLE4=Immer Mit Dir
TTITLE5=Anker
TTITLE6=Mini Wält
TTITLE7=Revolverheld
TTITLE8=Gold Und Silber
TTITLE9=Blaumaler
TTITLE10=Schnaps U Wii
EXTD=
EXTT0=
EXTT1=
EXTT2=
EXTT3=
EXTT4=
EXTT5=
EXTT6=
EXTT7=
EXTT8=
EXTT9=
EXTT10=
PLAYORDER=
